<svg width="70" height="41" viewBox="0 0 70 41" fill="none" xmlns="http://www.w3.org/2000/svg">
<g clip-path="url(#clip0_1_31)">
<path d="M0 0.012795C0.0610939 0.012795 0.101823 0.012795 0.149341 0.012795C3.89643 0.012795 7.65031 -0.0213603 11.3974 0.0264571C14.391 0.0606124 16.8551 1.28337 18.7558 3.61959C19.8148 4.92432 20.4597 6.42033 20.7108 8.07344C21.0231 10.1364 20.6905 12.1038 19.7333 13.9618C19.6315 14.1531 19.5161 14.3375 19.4075 14.5356C19.5636 14.6996 19.7197 14.8635 19.8691 15.0343C21.0978 16.4278 21.892 18.0468 22.1363 19.8912C22.564 23.1154 21.634 25.8957 19.3057 28.1772C17.819 29.6254 16.0337 30.4656 13.9905 30.7457C13.5357 30.8072 13.0673 30.8277 12.6057 30.8277C8.47168 30.8345 4.33767 30.8345 0.203646 30.8345C0.142552 30.8345 0.0814585 30.8345 0.00678821 30.8345C0 20.5538 0 10.2935 0 0.012795ZM7.28375 23.5799C7.35842 23.5799 7.41951 23.5799 7.48061 23.5799C9.15051 23.5799 10.8204 23.5799 12.4835 23.5799C12.6736 23.5799 12.8704 23.5663 13.0605 23.5458C14.3503 23.3887 15.2599 22.0156 14.9069 20.7519C14.6082 19.6999 13.7597 19.0509 12.66 19.0441C10.9154 19.0373 9.17766 19.0441 7.43309 19.0441C7.38557 19.0441 7.33126 19.051 7.27696 19.051C7.28375 20.5606 7.28375 22.0566 7.28375 23.5799ZM7.28375 11.7964C7.33805 11.7964 7.37199 11.7964 7.41272 11.7964C8.71606 11.7964 10.0126 11.7964 11.3159 11.7964C11.4313 11.7964 11.5535 11.7827 11.6689 11.7622C13.108 11.5095 13.9362 10.0613 13.4135 8.70873C13.0741 7.82752 12.2324 7.26055 11.2345 7.26055C9.97188 7.26055 8.71606 7.26055 7.45345 7.26055C7.39915 7.26055 7.34484 7.26055 7.28375 7.26055C7.28375 8.77704 7.28375 10.273 7.28375 11.7964Z" fill="#34D186"/>
<path d="M35.6856 8.76404C38.2515 8.79136 40.6546 9.62475 42.725 11.3393C44.7614 13.0266 46.0783 15.1784 46.5739 17.7947C47.2255 21.2375 46.4381 24.3525 44.2252 27.0644C42.562 29.1069 40.4034 30.3775 37.8375 30.9172C36.7106 31.1562 35.5702 31.2109 34.4298 31.0879C32.1082 30.8352 30.0446 29.9676 28.2661 28.4307C26.3382 26.7639 25.1096 24.6736 24.5937 22.1734C24.3425 20.9643 24.3086 19.7484 24.4647 18.5256C24.7498 16.3397 25.6051 14.4065 27.0238 12.7329C28.558 10.9227 30.4858 9.72722 32.7734 9.12608C33.6831 8.87334 34.6198 8.76404 35.6856 8.76404ZM31.9385 19.9533C31.9657 21.9685 33.5405 23.5738 35.577 23.5738C37.6406 23.5738 39.2019 21.9343 39.2019 19.9533C39.2087 17.9518 37.5863 16.3397 35.5702 16.3397C33.5677 16.3328 31.9385 17.9586 31.9385 19.9533Z" fill="#34D186"/>
<path d="M70 24.9469C70 24.9743 70 25.0289 70 25.0767C70 26.7367 70 28.4034 70 30.0634C70 30.1864 69.9728 30.2547 69.8574 30.3161C69.0904 30.6987 68.2894 30.9651 67.4408 31.0676C65.6963 31.2725 64.0196 31.0539 62.4583 30.2205C61.0667 29.4759 60.1096 28.342 59.5665 26.8528C59.2543 25.9921 59.0981 25.104 59.0981 24.1955C59.0846 19.6324 59.0914 15.0692 59.0914 10.4992C59.0914 8.79832 59.0914 7.09738 59.0914 5.39645C59.0914 5.32814 59.0914 5.25983 59.0914 5.17786C61.5147 4.66553 63.9246 4.16003 66.3547 3.64087C66.3547 5.48525 66.3547 7.30915 66.3547 9.16036C67.5698 9.16036 68.7713 9.16036 69.9864 9.16036C69.9864 11.5854 69.9864 13.9899 69.9864 16.4218C68.7917 16.4218 67.597 16.4218 66.3955 16.4218C66.3887 16.4764 66.3819 16.5106 66.3819 16.5447C66.3819 18.5462 66.3819 20.5546 66.3955 22.5561C66.4022 23.1572 66.5312 23.7447 66.8435 24.2707C67.21 24.8923 67.7802 25.1382 68.4794 25.0972C68.9682 25.0699 69.4705 24.9948 70 24.9469Z" fill="#34D186"/>
<path d="M49.0041 1.5437C51.4207 1.03137 53.8305 0.519043 56.2539 0.00671387C56.2539 10.2806 56.2539 20.5409 56.2539 30.8079C53.8373 30.8079 51.4275 30.8079 49.0041 30.8079C49.0041 21.0669 49.0041 11.3189 49.0041 1.5437Z" fill="#34D186"/>
<path d="M35.5701 33.7522C37.5794 33.7522 39.2154 35.3643 39.2086 37.3658C39.2018 39.4425 37.5387 40.9999 35.5701 40.9931C33.5676 40.9931 31.9385 39.3605 31.9385 37.3658C31.9317 35.378 33.5676 33.7522 35.5701 33.7522Z" fill="#34D186"/>
</g>
<defs>
<clipPath id="clip0_1_31">
<rect width="70" height="41" fill="white"/>
</clipPath>
</defs>
</svg>
